# xmcd
#
# Track frame offsets:
#	150
#	22119
#	34463
#	47415
#	56302
#	63337
#	73579
#	82459
#	90643
#	98670
#	104085
#	115747
#	123069
#
# Disc length: 1778 seconds
#
# Revision: 0
# Processed by: cddbd v1.5.2PL0 Copyright (c) Steve Scherf et al.
# Submitted via: EZCDAudioConverter 7.1.0.1
#
DISCID=af06f00d
DTITLE=中国娃娃 - 贺岁 发福发财中国年 DiscA 贺岁CD
DYEAR=2006
DGENRE=
TTITLE0=发福发财中国年
TTITLE1=拜年
TTITLE2=拜大年
TTITLE3=新年好
TTITLE4=恭喜发财
TTITLE5=招财进宝
TTITLE6=迎春接福
TTITLE7=恭喜恭喜
TTITLE8=贺新年
TTITLE9=凤阳花鼓
TTITLE10=大地回春
TTITLE11=迎春花
TTITLE12=小拜年
EXTD=
EXTT0=
EXTT1=
EXTT2=
EXTT3=
EXTT4=
EXTT5=
EXTT6=
EXTT7=
EXTT8=
EXTT9=
EXTT10=
EXTT11=
EXTT12=
PLAYORDER=
